<svg version="1.1" id="Layer_1" xmlns="http://www.w3.org/2000/svg" xmlns:xlink="http://www.w3.org/1999/xlink" x="0px" y="0px"
	 width="100%" viewBox="0 0 1024 1024" enable-background="new 0 0 1024 1024" xml:space="preserve">
<path fill="#FFFFFF" opacity="1.000000" stroke="#FFFFFF" stroke-width="18" stroke-linejoin="round" stroke-linecap="round" paint-order="stroke fill"
	d="
M199.338257,720.717041 
	C169.653198,707.173035 143.357285,689.197144 119.147171,667.977600 
	C114.674973,664.057861 113.161491,660.397949 114.292953,654.212891 
	C118.878159,629.148010 126.181282,605.052368 137.694839,582.300842 
	C139.531189,578.672058 139.363953,576.270447 136.214828,573.228271 
	C118.314980,555.935913 102.426117,536.893860 87.833855,516.734741 
	C85.702835,513.790771 86.126816,511.894501 88.060188,509.301453 
	C102.715118,489.646027 117.824753,470.368103 135.741318,453.532806 
	C139.176849,450.304596 139.503967,447.810791 137.448776,443.710144 
	C125.800621,420.469055 118.440643,395.815399 113.879364,370.271271 
	C113.333237,367.212799 114.469788,365.272644 116.673477,363.368774 
	C136.919403,345.877197 158.735031,330.642365 182.192902,317.787628 
	C188.613861,314.269012 195.162796,310.948181 201.832581,307.933899 
	C205.390320,306.326019 206.755447,304.194366 206.683548,300.288940 
	C206.193237,273.653748 210.800400,247.649841 216.582932,221.784821 
	C217.439301,217.954239 219.216156,216.225845 223.062378,215.543732 
	C246.015274,211.473068 269.043640,208.132767 292.397491,207.698593 
	C306.939667,207.428238 306.989197,207.528748 312.778900,194.010773 
	C321.922180,172.662796 333.034637,152.390854 345.791260,132.999115 
	C347.531769,130.353333 349.050598,128.695969 352.943207,129.381424 
	C381.221863,134.361115 409.057098,140.822830 435.241119,152.984238 
	C439.260864,154.851242 441.662598,154.313034 444.617859,151.027908 
	C464.504822,128.920990 486.772583,109.365402 509.810120,90.632011 
	C512.979126,88.055099 514.800598,89.579308 517.114380,91.363747 
	C539.865112,108.909546 561.043640,128.181717 580.233887,149.562271 
	C583.953552,153.706497 586.763306,155.034531 592.388550,152.504700 
	C618.042725,140.967331 645.091064,134.058136 672.819031,129.582184 
	C676.616150,128.969238 678.634583,130.138733 680.602356,133.110825 
	C694.067444,153.447784 705.467957,174.884338 715.143738,197.255508 
	C715.209595,197.407883 715.235779,197.578171 715.306885,197.727493 
	C720.458130,208.534653 717.008240,206.456055 728.789551,207.019531 
	C754.083801,208.229263 779.233276,210.760605 804.085022,215.825012 
	C807.251892,216.470383 808.756226,218.145599 809.562256,221.346375 
	C813.711060,237.819763 816.377014,254.533478 818.353149,271.383087 
	C819.556458,281.643280 820.675964,291.902588 820.326782,302.253021 
	C820.240601,304.805023 821.409241,306.159698 823.641663,307.191803 
	C854.546570,321.480011 882.523987,340.289917 908.647583,362.024109 
	C912.124207,364.916534 912.886780,367.793823 912.091187,371.965912 
	C907.394836,396.592865 900.676880,420.570679 889.294189,443.021759 
	C886.957336,447.630951 887.538269,450.544617 891.386841,454.194153 
	C909.097900,470.989136 924.065247,490.169525 938.591919,509.714050 
	C941.005737,512.961670 939.615967,515.084229 937.738403,517.648071 
	C923.246704,537.436646 907.545410,556.195068 889.964661,573.312988 
	C887.049866,576.151123 886.703430,578.341125 888.545898,581.907166 
	C900.654236,605.342285 907.521912,630.475769 912.318115,656.276794 
	C913.101685,660.492126 912.064026,663.349365 908.802002,666.248962 
	C884.760681,687.619263 858.839600,706.150024 829.415649,719.436951 
	C825.476807,721.215576 824.374207,723.230103 824.853088,727.795410 
	C826.887024,747.185913 827.348572,766.637207 825.642090,786.126221 
	C824.771179,796.073547 823.872803,805.997253 822.467957,815.888062 
	C821.982910,819.303284 820.626038,820.826294 817.272400,821.333008 
	C793.539368,824.918762 769.698853,827.125488 745.682007,827.063477 
	C740.026672,827.048889 734.364319,826.733276 728.720642,826.336731 
	C725.596130,826.117188 723.838867,827.292786 722.571960,830.146057 
	C715.035156,847.119751 705.225647,862.793091 694.539978,877.911926 
	C686.843018,888.802002 678.218811,898.959351 669.126526,908.733154 
	C666.699768,911.341858 664.253662,911.731873 661.105042,911.036194 
	C635.956970,905.480408 611.640625,897.507751 588.779846,885.546814 
	C583.919861,883.004028 581.332947,883.514709 577.600586,887.848755 
	C560.830383,907.322449 542.346375,925.109802 522.210938,941.122559 
	C512.792053,948.613037 512.825195,948.424683 503.473022,940.769958 
	C483.440704,924.373657 464.594971,906.760254 447.950165,886.896790 
	C444.956329,883.323975 442.262085,882.830261 438.089539,884.976196 
	C414.869049,896.918579 390.495117,905.679077 364.853668,910.828552 
	C362.103210,911.380981 359.951477,911.541992 357.671478,909.165283 
	C337.566376,888.206299 321.107361,864.689148 307.802521,838.918762 
	C307.191620,837.735474 306.602966,836.537292 306.074158,835.315674 
	C301.890839,825.651855 301.909454,825.868652 291.278900,826.516113 
	C270.605316,827.775146 250.024368,826.228943 229.510498,823.741882 
	C222.417023,822.881897 215.389709,821.482666 208.300491,820.577942 
	C205.179626,820.179626 204.211426,818.512939 203.761475,815.696655 
	C199.911652,791.600098 199.015503,767.345764 199.850555,743.008484 
	C200.032639,737.701965 200.818924,732.415283 201.353760,727.122131 
	C201.586243,724.821472 202.318436,722.410339 199.338257,720.717041 
M413.230957,518.722656 
	C402.893646,526.534424 393.079559,534.895630 384.907562,545.030212 
	C386.550049,546.811890 388.400421,547.112915 390.107880,547.718872 
	C403.172485,552.355591 416.632172,555.465088 430.306366,557.498718 
	C434.854095,558.174988 435.345764,559.686096 433.947266,563.662781 
	C432.131927,568.824524 430.750977,574.170776 429.602936,579.527588 
	C428.164429,586.239868 426.324402,592.922974 425.980499,600.277649 
	C438.244324,598.109985 449.863708,596.116089 461.135620,592.451782 
	C467.763123,590.297363 467.974762,590.358459 468.985718,597.280457 
	C470.069763,604.703247 471.647888,612.013611 473.403229,619.286865 
	C475.185425,626.671631 477.371460,633.941589 480.623932,641.547363 
	C493.748474,630.984497 503.285645,618.089417 513.172913,604.373352 
	C522.906128,618.329651 532.901306,630.850830 545.615601,641.658630 
	C546.441284,639.743347 547.118164,638.438110 547.580139,637.060730 
	C552.087280,623.622681 555.516296,609.894409 557.512451,595.878296 
	C558.172058,591.247070 559.936279,590.861023 563.736084,591.974548 
	C570.120605,593.845398 576.536987,595.686096 583.044739,597.033386 
	C588.481628,598.158936 593.870850,600.114563 599.573547,599.617554 
	C600.272156,597.240112 599.727966,595.288391 599.317444,593.381287 
	C597.181458,583.459106 595.316711,573.464844 592.252869,563.771118 
	C591.087341,560.083374 591.851562,558.344849 595.954651,557.607849 
	C604.296631,556.109314 612.592285,554.282837 620.820129,552.241028 
	C627.678040,550.539185 634.550964,548.726990 641.007690,545.557861 
	C640.104004,543.036743 638.508301,541.536194 636.978699,540.058960 
	C628.350159,531.726074 619.774109,523.335876 609.715332,516.652405 
	C605.084839,513.575745 605.153809,512.781860 609.459717,509.585571 
	C613.338928,506.706055 617.289001,503.905243 621.001099,500.820892 
	C628.275513,494.776733 634.991455,488.152435 641.165527,481.178497 
	C639.909302,478.991425 638.072754,478.945251 636.571167,478.464355 
	C623.406067,474.248016 610.039795,470.803314 596.428955,468.351807 
	C590.585632,467.299347 590.594177,467.233826 592.332886,461.783752 
	C596.012390,450.250305 598.818359,438.517365 600.308533,426.388733 
	C597.776489,425.834503 595.681458,426.373901 593.592041,426.776733 
	C583.455200,428.730988 573.379761,430.960876 563.575195,434.229553 
	C559.799927,435.488129 558.207764,434.494568 557.614319,430.417999 
	C555.788940,417.879822 552.544983,405.648193 548.750916,393.570343 
	C547.825989,390.625763 547.108826,387.537292 544.939392,384.562958 
	C532.608032,395.502045 522.496521,407.856354 513.198120,421.809204 
	C503.376282,407.953064 493.751892,395.390137 480.823730,385.089417 
	C473.679443,401.604614 470.767059,418.442688 467.621948,435.723907 
	C453.611145,431.492981 440.137878,427.605011 425.808258,425.965698 
	C427.376648,440.612610 431.513031,454.029388 435.611542,467.742920 
	C417.886383,470.511383 401.068512,473.878235 384.419037,480.549530 
	C395.391296,493.210693 407.519379,503.396698 421.193085,512.955688 
	C418.060181,515.214661 415.931763,516.749329 413.230957,518.722656 
M253.941666,563.536255 
	C256.567657,565.237305 259.193665,566.938293 261.514771,568.441833 
	C263.312347,567.994263 263.839874,566.882385 264.393433,565.893677 
	C274.495026,547.850037 287.908478,532.369324 302.226868,517.668152 
	C305.891022,513.906006 305.442566,511.730286 301.991730,508.424164 
	C289.184601,496.154022 278.226440,482.335602 268.622223,467.435333 
	C266.491943,464.130341 264.347961,460.834167 261.997681,457.205719 
	C239.226059,472.089508 219.269135,489.244812 202.631622,510.184113 
	C200.288742,513.132690 201.875320,514.964050 203.616150,517.113831 
	C217.978058,534.849121 234.841415,549.875305 253.941666,563.536255 
M749.106445,546.405640 
	C755.093994,553.042480 758.612610,561.451660 764.304260,568.592773 
	C787.581055,554.264587 806.929443,536.410095 823.936035,515.877686 
	C825.724854,513.717957 825.160828,512.184265 823.586121,510.239899 
	C807.844849,490.803436 789.518372,474.244476 768.765076,460.296448 
	C765.114563,457.843018 763.199890,458.293243 760.947571,462.080322 
	C754.900818,472.247498 748.136536,481.943237 740.243469,490.803833 
	C733.632141,498.225525 727.040588,505.664825 720.248352,513.312561 
	C730.221985,524.012329 740.174927,534.301575 749.106445,546.405640 
M172.471634,605.065735 
	C165.366455,600.341309 159.563461,593.853516 151.956390,589.167969 
	C141.842133,610.303833 135.437988,631.854126 131.974945,654.327148 
	C131.595459,656.789856 132.962769,658.017029 134.503052,659.315613 
	C147.618729,670.373352 161.232559,680.768188 175.769150,689.899841 
	C184.743881,695.537598 194.040436,700.601440 203.348679,705.029785 
	C204.868469,704.088989 204.578140,702.983582 204.742569,702.041687 
	C208.287415,681.735779 212.650116,661.604065 218.592972,641.866577 
	C219.932755,637.416870 218.984894,635.293518 215.122406,633.139038 
	C200.435776,624.946533 186.185287,616.050903 172.471634,605.065735 
M817.981689,629.540649 
	C815.508850,630.920715 813.148499,632.586243 810.537231,633.614868 
	C806.463074,635.219788 806.285583,637.713074 807.392578,641.507385 
	C811.677124,656.192810 815.839966,670.907471 818.707581,685.975037 
	C819.868408,692.074463 820.207214,698.428223 822.659790,704.590027 
	C824.238281,704.047119 825.534302,703.762756 826.681213,703.183167 
	C850.442871,691.175659 872.261658,676.292786 892.340576,658.823669 
	C894.711426,656.760925 894.760254,654.472473 894.230225,651.630920 
	C890.859863,633.561401 885.562866,616.072021 878.565613,599.099121 
	C877.204712,595.798157 876.307556,592.180603 873.382812,588.937439 
	C856.106995,603.950134 837.903320,617.317017 817.981689,629.540649 
M515.915161,723.684204 
	C513.496033,720.401611 511.646118,722.080811 509.591095,724.241150 
	C498.437347,735.966614 486.357758,746.649597 473.135681,755.997925 
	C468.436523,759.320251 463.569153,762.404724 458.848907,765.550903 
	C459.178192,766.507263 459.234924,767.045593 459.511688,767.422180 
	C473.871033,786.962402 490.538666,804.324402 508.955719,820.067139 
	C511.916138,822.597656 514.106628,822.653137 517.108337,820.130432 
	C529.873840,809.401978 542.088379,798.108887 552.810181,785.320679 
	C557.980530,779.153870 563.332214,773.045166 567.352600,765.559692 
	C548.278992,753.864807 531.620361,739.893982 515.915161,723.684204 
M870.650635,353.888916 
	C863.324768,348.961670 856.148438,343.790894 848.631348,339.175018 
	C840.974854,334.473541 833.041931,330.207306 825.102112,325.991333 
	C822.730835,324.732208 819.525085,323.027008 819.305603,328.317535 
	C818.481750,348.178253 814.814331,367.612823 809.996399,386.828033 
	C809.114929,390.343781 809.955994,392.028717 812.836548,393.648407 
	C831.484314,404.133667 848.682617,416.703003 865.277832,430.154358 
	C868.035583,432.389587 870.398926,435.302856 873.891724,436.571503 
	C874.415955,435.987854 874.859741,435.675842 875.055176,435.249908 
	C883.772583,416.254761 890.275818,396.558929 893.977539,375.953400 
	C894.443604,373.359314 893.365173,371.862183 891.644409,370.380157 
	C885.075317,364.722168 878.360046,359.251984 870.650635,353.888916 
M215.616165,384.555267 
	C210.559357,364.748993 208.216003,344.495667 206.231857,324.403137 
	C204.236313,323.890167 203.104843,324.727936 201.959473,325.329346 
	C178.134720,337.838989 155.802917,352.577423 135.101013,369.803741 
	C131.914764,372.455078 132.077560,375.251953 132.782990,378.690002 
	C136.545044,397.025177 142.297394,414.712372 149.746475,431.868530 
	C152.076172,437.234131 152.384354,437.391968 156.920898,433.546997 
	C174.372696,418.755585 192.802643,405.319733 212.689514,393.999695 
	C216.767990,391.678131 217.810013,389.302643 215.616165,384.555267 
M655.396606,816.287842 
	C649.908691,814.946533 644.326233,813.898499 638.963562,812.169006 
	C634.848267,810.841675 632.759277,811.909973 630.575928,815.603638 
	C623.382812,827.772461 615.691162,839.639648 607.221436,850.981934 
	C602.675781,857.069214 598.213318,863.218750 593.880066,869.113342 
	C594.826050,871.033752 596.246582,871.224609 597.414062,871.784790 
	C615.766602,880.590698 634.834656,887.346375 654.603394,892.246033 
	C658.728882,893.268555 661.315979,892.581726 664.142273,889.432739 
	C680.255188,871.480164 693.268311,851.437134 704.638245,830.261597 
	C705.458984,828.732971 706.712769,827.194214 706.033325,824.774536 
	C689.445984,822.347778 672.595276,820.730652 655.396606,816.287842 
M350.432098,875.084412 
	C354.564056,880.083252 358.818146,884.987732 362.781036,890.117188 
	C365.069244,893.078857 367.610352,893.451172 371.021118,892.550476 
	C386.467682,888.471375 401.663635,883.635864 416.424774,877.529907 
	C421.884064,875.271729 427.460724,873.133789 432.640259,869.705322 
	C431.859406,868.456787 431.337921,867.428406 430.641052,866.537292 
	C417.608887,849.873047 405.441162,832.614807 394.924530,814.239502 
	C393.109589,811.068420 390.855347,811.092590 387.773834,811.939331 
	C373.190430,815.946716 358.501740,819.510864 343.491028,821.577759 
	C335.670685,822.654663 327.855255,823.767395 319.306091,824.966553 
	C327.840942,843.100891 338.351746,859.154968 350.432098,875.084412 
M488.005035,232.470749 
	C479.684967,243.570908 472.811981,255.536072 466.715363,267.971954 
	C465.769073,269.902191 465.025330,271.543396 467.413300,273.069641 
	C482.898926,282.967285 497.061340,294.551086 510.452087,307.100647 
	C512.639587,309.150726 514.376526,308.696991 516.456726,306.792542 
	C529.489929,294.860352 543.039978,283.551514 557.815796,273.814117 
	C560.724304,271.897369 560.880066,270.071381 559.379150,267.212555 
	C547.941406,245.427002 534.402893,225.168564 517.116760,207.501968 
	C513.979004,204.295166 511.944794,204.446213 509.040985,207.522232 
	C501.721497,215.275894 494.397003,223.006027 488.005035,232.470749 
M472.522400,172.922775 
	C480.975616,178.252792 489.443115,183.587326 497.153931,189.959457 
	C500.447266,192.681030 502.772186,192.671478 506.070526,189.788055 
	C513.120117,183.625198 513.424255,183.674774 520.462280,190.014801 
	C523.534180,192.782028 525.787537,192.952026 529.012268,190.296326 
	C540.225830,181.061584 552.694458,173.657837 565.093994,166.167435 
	C566.611511,165.250732 568.505005,164.726852 569.337646,162.612640 
	C568.975220,161.993546 568.667419,161.205490 568.142273,160.608734 
	C552.243286,142.542603 534.216125,126.758957 515.582825,111.623444 
	C513.239563,109.720032 511.489532,110.626060 509.442261,112.281113 
	C491.932495,126.436417 475.540771,141.793152 459.981689,158.050018 
	C458.643036,159.448700 456.966675,160.708878 456.741913,163.306625 
	C461.732239,166.340576 466.822479,169.435257 472.522400,172.922775 
M513.358643,926.395935 
	C514.486816,925.704590 515.715027,925.135132 516.728027,924.303528 
	C531.931763,911.823608 546.452271,898.606750 559.770996,884.108521 
	C562.431946,881.211792 564.990051,878.220642 567.898560,874.930298 
	C565.929626,873.551392 564.539429,872.373840 562.974792,871.513916 
	C549.215820,863.952393 536.509705,854.844604 524.037476,845.362793 
	C521.031494,843.077576 518.322937,838.571289 513.453369,842.568665 
	C513.106750,842.853210 511.792389,842.358948 511.208038,841.882996 
	C508.969299,840.059631 507.237274,841.154053 505.461823,842.613708 
	C495.932953,850.447571 485.754272,857.367310 475.525208,864.244751 
	C470.089111,867.899658 464.221924,870.907288 458.534668,874.450623 
	C462.015778,879.841614 466.062073,883.607544 469.865417,887.507446 
	C483.345154,901.329041 497.061279,914.916870 513.358643,926.395935 
M218.386856,797.175659 
	C220.057678,805.683472 220.089630,805.479919 228.799698,806.847168 
	C242.969757,809.071289 257.280670,809.549133 271.543671,810.532715 
	C279.072906,811.051819 286.667450,810.624451 293.943604,810.624451 
	C294.770691,808.282593 294.024597,807.067932 293.581085,805.869995 
	C288.715363,792.728699 285.286835,779.196899 282.171692,765.551880 
	C280.876984,759.880615 281.980988,753.005249 275.433136,749.429871 
	C275.110596,749.253723 274.966370,748.530823 274.947998,748.054382 
	C274.844116,745.362427 273.252380,744.584595 270.807770,744.055542 
	C254.043915,740.427429 237.398941,736.344971 221.437256,729.901978 
	C220.342590,729.460144 219.231934,729.100708 217.176926,730.285156 
	C215.474487,751.952576 215.594482,774.129150 218.386856,797.175659 
M747.177612,751.701050 
	C745.989014,752.806335 745.737793,754.351990 745.539368,755.795410 
	C743.194519,772.849854 738.614075,789.328735 732.896912,805.522949 
	C732.408875,806.905273 731.710510,808.278320 732.250977,809.973022 
	C733.558838,810.777649 735.086609,810.561462 736.548523,810.585632 
	C758.567749,810.948669 780.446228,808.997192 802.299927,806.601624 
	C805.247192,806.278625 806.478394,804.888245 806.944336,801.871460 
	C809.879395,782.867981 810.415405,763.766663 809.731995,744.597534 
	C809.549744,739.484192 809.908386,734.310425 808.220520,729.412842 
	C806.853699,728.949280 805.815979,729.531799 804.724670,729.929871 
	C789.072998,735.639832 773.226868,740.669800 756.809265,743.733948 
	C754.047363,744.249329 751.072998,744.580688 751.067200,748.637695 
	C751.064758,750.349182 749.354004,750.925049 747.177612,751.701050 
M601.433289,174.092697 
	C611.673279,186.407318 620.523682,199.712234 629.108521,213.193619 
	C630.746094,215.765198 632.213074,216.690704 635.517578,216.110764 
	C652.853210,213.068359 670.081787,209.310837 687.760498,208.397736 
	C691.896179,208.184128 696.308044,208.494797 700.257812,206.970657 
	C700.312195,206.252914 700.453369,205.882004 700.344727,205.611374 
	C692.571960,186.249649 682.839294,167.904663 671.689026,150.288544 
	C670.171631,147.891190 668.236572,147.738495 665.689087,148.148087 
	C648.410522,150.926224 631.425842,154.893951 614.973206,160.880676 
	C609.114929,163.012344 602.954529,164.537872 597.634949,167.674042 
	C597.744324,170.602829 599.784729,171.819687 601.433289,174.092697 
M427.825775,170.557938 
	C429.547913,167.275040 426.598206,166.823212 424.842682,166.139771 
	C417.562500,163.305573 410.278229,160.433823 402.839386,158.066116 
	C390.007080,153.981689 376.966156,150.605484 363.633148,148.590561 
	C360.715424,148.149643 357.213165,146.750153 354.901672,150.157486 
	C343.550232,166.890442 334.905884,185.050522 326.889435,203.535889 
	C325.745239,206.174377 326.450684,207.553085 329.559601,207.736938 
	C350.493530,208.975037 371.206482,211.911133 391.712280,216.255066 
	C394.437531,216.832382 395.726715,215.716583 396.964264,213.720444 
	C406.184906,198.847794 416.543793,184.787781 427.825775,170.557938 
M409.823059,385.298553 
	C409.836182,374.816010 409.352753,364.298492 410.086945,353.866699 
	C410.418457,349.155853 409.094666,347.868652 405.004303,346.945465 
	C387.140900,342.913788 369.178009,342.249603 350.993866,344.127472 
	C346.818481,344.558685 345.174652,346.102539 344.611664,349.989655 
	C341.943665,368.411255 342.005127,386.712219 346.048615,404.979248 
	C346.874481,408.710297 348.424652,409.821899 352.075073,409.765991 
	C371.031921,409.475464 390.002197,409.172577 408.788116,412.525146 
	C411.527222,413.013977 412.839050,412.147369 412.439087,409.031494 
	C411.466125,401.452240 410.709290,393.845276 409.823059,385.298553 
M377.460632,682.938599 
	C386.823059,682.914062 396.001312,681.341614 405.178131,679.705566 
	C407.930817,679.214966 409.796722,678.458923 409.466064,674.965820 
	C407.713318,656.449829 409.928070,638.086975 411.994965,619.739685 
	C412.749573,613.041016 412.519989,612.754028 405.662140,613.712036 
	C396.278534,615.022827 386.886871,616.346802 377.370789,616.311096 
	C368.712433,616.278564 360.053528,616.370239 351.395508,616.311890 
	C348.851013,616.294739 346.842041,616.541199 346.221375,619.630676 
	C342.422089,638.542725 340.951416,657.487549 344.752350,676.604736 
	C345.431824,680.022278 347.463959,681.202942 350.571289,681.645203 
	C359.169556,682.869202 367.798523,683.306580 377.460632,682.938599 
M624.101318,680.361206 
	C640.937927,683.253418 657.817688,683.686890 674.818970,681.827148 
	C679.080200,681.361023 680.917236,679.762390 681.696899,675.654663 
	C685.137512,657.527893 683.654785,639.579224 680.500732,621.600464 
	C679.642151,616.706787 677.020813,616.141296 672.793030,616.363953 
	C654.805603,617.311096 636.895264,616.189880 619.063843,613.708923 
	C617.293030,613.462585 615.476807,612.799194 613.793213,614.178406 
	C613.724670,614.668152 613.539307,615.170471 613.605591,615.636963 
	C616.281250,634.452393 617.720703,653.358948 616.992493,672.356323 
	C616.801147,677.347595 618.112366,680.016846 624.101318,680.361206 
M682.858826,362.385864 
	C682.405823,358.087036 682.026428,353.778778 681.475098,349.492584 
	C681.077576,346.401794 679.703552,344.590515 676.080261,344.209229 
	C657.719788,342.277161 639.567627,342.946625 621.521790,347.103729 
	C617.536743,348.021759 615.882935,349.453186 616.222717,353.713318 
	C617.310547,367.352875 616.655396,380.985229 615.382812,394.591827 
	C614.834412,400.456146 614.294434,406.321289 613.772827,411.945862 
	C615.435364,412.836273 616.558472,412.375397 617.700989,412.213989 
	C627.589905,410.816895 637.502808,409.900269 647.507812,409.598083 
	C656.502441,409.326477 665.476379,409.246063 674.455383,409.673340 
	C677.349854,409.811096 679.156738,409.019867 679.821533,405.887329 
	C682.806091,391.824615 684.502136,377.684052 682.858826,362.385864 
M221.639084,556.876160 
	C211.123825,547.734436 201.221725,537.963257 192.037674,527.204407 
	C190.870819,528.233521 190.011505,528.775146 189.434937,529.532043 
	C179.450150,542.640808 169.920532,556.055969 161.543701,570.275208 
	C159.578781,573.610413 161.110031,575.448669 163.394836,577.458008 
	C181.685913,593.543579 201.229858,607.880188 222.307358,620.132263 
	C225.420563,621.941895 226.836838,621.451782 228.379959,618.298828 
	C234.308044,606.186279 240.991730,594.483704 248.124863,583.037048 
	C248.971451,581.678528 250.259613,580.422913 249.840622,578.267029 
	C240.494110,571.662781 230.795944,565.203918 221.639084,556.876160 
M794.036377,610.567444 
	C796.061401,614.137817 797.241882,618.193909 799.987183,621.363525 
	C802.936218,620.921570 804.964172,619.084167 807.239197,617.783081 
	C827.395691,606.255249 845.968567,592.543945 863.282227,577.094543 
	C865.433716,575.174805 866.756958,573.579102 864.793823,570.401672 
	C856.214050,556.514709 847.314636,542.867554 836.971436,530.209961 
	C836.156799,529.213013 835.564758,527.890076 833.899841,527.821350 
	C833.527710,528.040283 832.995056,528.195679 832.700806,528.549377 
	C817.253967,547.117188 799.173767,562.729553 779.139771,576.116943 
	C776.169556,578.101746 776.237671,579.900818 778.017395,582.662964 
	C783.696289,591.476624 788.877930,600.589111 794.036377,610.567444 
M201.361923,418.892578 
	C188.287888,427.803894 176.089203,437.813354 164.063385,448.079102 
	C160.450485,451.163208 160.383530,453.558594 162.600739,457.313782 
	C168.869400,467.930725 175.721420,478.152283 183.127380,487.984802 
	C185.842484,491.589569 187.952744,495.854828 192.224625,498.605865 
	C209.389328,478.634735 228.757004,461.555786 251.001022,447.189758 
	C241.150391,433.215302 231.731277,419.794556 223.410538,404.974915 
	C215.967850,409.657196 208.959320,414.066345 201.361923,418.892578 
M790.949036,424.395569 
	C785.813782,431.909271 780.678528,439.422974 775.237610,447.383972 
	C797.858887,461.422394 816.671204,479.148560 833.960938,498.464050 
	C834.900635,497.857208 835.410645,497.675629 835.704285,497.316986 
	C846.574524,484.041656 856.486694,470.099243 865.176514,455.287262 
	C866.623413,452.820953 865.806702,451.390900 863.986694,449.768890 
	C846.053467,433.785797 826.887268,419.502930 806.102417,407.411591 
	C803.483093,405.887787 801.864441,406.366058 800.390625,408.870941 
	C797.440979,413.883972 794.378479,418.830627 790.949036,424.395569 
M286.405975,224.128006 
	C269.636292,225.169373 253.020752,227.451797 236.454422,230.190826 
	C233.195206,230.729706 231.533676,232.148468 230.976395,235.510712 
	C229.700195,243.210312 227.947311,250.830612 226.655212,258.527954 
	C224.462631,271.589661 223.235901,284.750122 222.889282,298.761627 
	C239.758591,292.258575 256.657501,288.093475 273.661621,284.306763 
	C275.298584,283.942200 276.281616,282.592316 276.296387,281.018219 
	C276.343170,276.038727 279.526642,275.508667 283.383545,275.673950 
	C285.955841,275.784210 288.348633,275.775238 288.991882,272.294586 
	C291.802246,257.086395 295.402588,242.073151 300.389465,227.410172 
	C301.284698,224.777786 300.321838,223.159409 297.290497,223.358353 
	C293.972351,223.576126 290.656830,223.832840 286.405975,224.128006 
M763.978455,226.561584 
	C751.369141,225.280869 738.789001,223.224899 726.180176,224.364594 
	C725.710083,226.703491 726.513916,228.036179 726.942810,229.446167 
	C730.766785,242.019287 734.640198,254.621521 736.560547,267.622406 
	C737.407471,273.356384 739.538391,275.967102 745.251831,275.769592 
	C748.256897,275.665741 750.007202,277.407440 750.153625,280.301666 
	C750.303772,283.271851 751.949524,284.158112 754.527527,284.725220 
	C769.973755,288.123138 785.322998,291.887756 800.117432,297.608429 
	C801.007202,297.952484 801.981140,298.442047 803.081665,297.673645 
	C803.201782,297.321198 803.511963,296.855652 803.492371,296.404419 
	C802.593323,275.750183 800.101074,255.316406 795.148071,235.208130 
	C794.489197,232.533081 793.108215,231.346527 790.450623,230.939453 
	C781.900818,229.629913 773.376892,228.151108 763.978455,226.561584 
M368.694672,801.068359 
	C372.548889,800.044250 376.373932,798.886414 380.266083,798.035889 
	C383.741119,797.276489 384.156921,795.612366 382.537872,792.717773 
	C375.035065,779.303711 369.443542,765.073181 364.848358,750.445984 
	C363.924286,747.504517 362.609131,746.514954 359.446930,747.105652 
	C339.622162,750.808350 319.632568,752.776855 299.436798,752.310730 
	C298.156097,752.281128 296.713165,752.110229 295.706268,753.872803 
	C298.897552,771.822571 304.610657,789.323730 310.710419,806.719788 
	C311.595337,809.243591 313.248322,809.777344 315.764069,809.469177 
	C333.233765,807.329468 350.703430,805.212463 368.694672,801.068359 
M606.746521,824.267761 
	C610.666138,818.088684 614.515381,811.863281 618.534973,805.749939 
	C620.554443,802.678650 620.030457,800.904236 616.721863,799.114319 
	C605.294678,792.932678 594.419983,785.832581 584.008423,778.071472 
	C580.612061,775.539734 578.470703,775.537842 575.977051,779.225281 
	C565.946655,794.057312 553.528748,806.795898 540.624268,819.113342 
	C537.051208,822.523987 532.891052,825.377563 529.993164,829.404663 
	C530.643372,831.314758 532.182312,832.130371 533.476318,833.098999 
	C546.273621,842.678589 559.742737,851.239197 573.323914,859.656372 
	C577.630066,862.325134 579.890625,861.326660 582.710815,857.659363 
	C590.931641,846.969238 598.729492,835.987671 606.746521,824.267761 
M411.366577,797.899170 
	C409.676636,799.192566 407.305573,799.461121 405.635193,801.940063 
	C417.775879,823.278931 432.297302,843.178223 447.899872,862.582336 
	C464.978394,852.452454 481.335144,842.351868 496.436005,829.926453 
	C495.523193,828.783020 495.010925,827.923279 494.300568,827.283569 
	C477.676544,812.312744 461.983276,796.485718 449.198975,778.011353 
	C447.168610,775.077332 445.433716,775.810486 443.050842,777.529236 
	C433.051941,784.741943 422.777435,791.542908 411.366577,797.899170 
M493.725067,696.740234 
	C486.131775,685.998657 481.399963,673.727234 475.640289,661.728516 
	C474.447083,662.411926 473.658508,662.714172 473.054108,663.231567 
	C459.227661,675.068054 444.523163,685.589294 427.925262,693.243469 
	C424.828461,694.671509 425.265717,696.830322 425.868408,699.466492 
	C429.594421,715.763428 435.589020,731.222778 442.908661,746.199402 
	C444.261139,748.966736 445.217712,752.007996 447.456757,754.110840 
	C448.090759,753.994568 448.457825,754.012512 448.736084,753.864014 
	C468.765594,743.179871 485.618378,728.412720 501.712677,712.663818 
	C503.443909,710.969788 502.916382,709.539124 501.682678,707.878479 
	C499.104858,704.408447 496.637421,700.856384 493.725067,696.740234 
M696.447510,751.326172 
	C687.010742,750.522461 677.608948,749.440125 668.324036,747.532043 
	C664.554260,746.757324 662.279724,747.407166 661.000793,751.760193 
	C656.960205,765.513489 651.006042,778.531189 644.695801,791.383423 
	C643.866577,793.072266 642.212402,794.619202 643.125671,797.074646 
	C644.439392,797.523315 645.811646,798.113953 647.242920,798.462280 
	C667.921509,803.494812 688.751709,807.545715 710.054504,808.950867 
	C713.644714,809.187622 715.206055,808.080627 716.312439,805.033630 
	C721.364563,791.119690 725.854309,777.044434 728.705688,762.494812 
	C729.328003,759.319519 730.541687,756.177246 729.825378,752.369202 
	C718.903198,752.192444 708.099487,752.633484 696.447510,751.326172 
M595.149780,717.744385 
	C596.870178,711.839722 598.543091,705.920715 600.328369,700.035767 
	C601.442200,696.364197 600.205505,694.255493 596.735535,692.555725 
	C584.285583,686.457336 572.622070,679.056763 561.753723,670.429443 
	C558.138794,667.559814 554.536987,664.673645 551.063232,661.902100 
	C549.166992,663.040283 549.130798,664.703796 548.543335,666.028198 
	C542.386169,679.908813 535.868713,693.622559 526.200073,705.457703 
	C523.029297,709.338989 523.412292,711.838745 526.772705,715.110962 
	C537.659912,725.712219 549.214539,735.477234 561.815186,743.976624 
	C567.278992,747.662109 572.521362,751.756653 579.005005,754.306824 
	C585.508423,742.641235 590.763000,730.819336 595.149780,717.744385 
M690.742676,590.854370 
	C692.090271,593.528931 693.411804,596.216980 694.794128,598.873474 
	C695.797913,600.802551 697.016785,601.797485 699.578674,601.193237 
	C717.203125,597.036194 733.817322,590.297363 749.875671,582.046875 
	C752.391113,580.754578 752.728943,579.314209 751.309265,576.894714 
	C740.470093,558.421875 727.700195,541.415771 713.016663,525.823486 
	C710.705078,523.368896 708.881897,523.412109 706.227356,525.405640 
	C695.539795,533.432007 684.117981,540.269531 671.890015,545.716492 
	C668.587830,547.187439 665.274597,548.633545 661.325989,550.373230 
	C672.288635,563.186584 682.148499,576.120667 690.742676,590.854370 
M316.473877,523.587036 
	C314.982849,523.672974 314.110260,524.776428 313.227509,525.722534 
	C298.649139,541.347229 285.633575,558.137268 274.888123,576.665161 
	C272.822968,580.225952 274.710419,581.284607 277.328369,582.607910 
	C292.520721,590.286926 308.217072,596.572021 324.780823,600.708496 
	C328.822052,601.717712 330.727966,600.727905 332.515106,597.106750 
	C339.170349,583.621521 347.401306,571.140625 357.241333,559.730896 
	C359.694946,556.885864 361.853485,553.786316 364.508942,550.334106 
	C347.270844,543.148682 331.708008,534.299988 316.473877,523.587036 
M675.370789,482.076904 
	C686.605286,487.236633 696.926880,493.938721 706.995605,501.029022 
	C709.437256,502.748383 711.032104,502.438324 712.964905,500.412231 
	C727.614990,485.055420 740.343567,468.268585 751.032837,449.921814 
	C752.724243,447.018616 752.567444,445.346222 749.344910,443.684387 
	C733.907410,435.723419 717.830322,429.520294 701.039246,425.060913 
	C697.556030,424.135864 695.948608,425.080688 694.444397,428.150146 
	C687.457825,442.407043 678.550232,455.418579 668.405396,467.613708 
	C666.334961,470.102600 663.914673,472.399597 662.447815,475.876831 
	C666.681152,477.903748 670.691772,479.824036 675.370789,482.076904 
M287.788818,438.319458 
	C283.048157,440.875153 277.707184,442.374084 273.324951,445.995087 
	C284.481110,466.358948 298.063232,484.310883 313.885437,500.621033 
	C316.125488,502.930145 318.027008,502.613373 320.363068,500.830994 
	C332.986969,491.199127 346.678802,483.390289 361.260834,477.123413 
	C362.151489,476.740631 363.171722,476.400726 363.284271,475.006012 
	C363.148071,474.686310 363.054291,474.152832 362.750885,473.799225 
	C350.462891,459.479553 339.661530,444.157837 331.369049,427.156250 
	C330.058289,424.468903 328.274658,424.438446 325.649200,425.132721 
	C312.929169,428.496704 300.453156,432.515533 287.788818,438.319458 
M737.653748,715.596619 
	C737.305847,700.443176 735.293518,685.480469 732.479431,670.611206 
	C731.908203,667.592712 730.711121,665.935303 727.016663,666.803894 
	C721.367554,668.131958 715.560730,668.773254 709.852051,669.868835 
	C705.810547,670.644409 700.778503,669.184692 697.908752,672.248962 
	C695.146545,675.198242 695.914551,680.116089 695.092041,684.158020 
	C693.292419,693.001648 693.342163,693.045837 684.252869,694.830811 
	C681.158020,695.438538 678.032349,696.050354 674.895386,696.239502 
	C671.558899,696.440613 670.438965,697.903503 670.123779,701.194458 
	C669.253235,710.284241 668.225647,719.377136 666.722168,728.378967 
	C666.121460,731.976135 667.616577,732.920593 670.385315,733.333862 
	C691.132324,736.430542 711.951477,738.221191 732.958557,736.886780 
	C735.669250,736.714661 736.619629,735.562561 737.062622,733.005554 
	C738.010925,727.532166 737.502441,722.047119 737.653748,715.596619 
M164.199493,537.740662 
	C169.292770,531.157776 174.282516,524.491089 179.519897,518.024902 
	C182.452332,514.404480 182.332977,511.306641 179.289124,507.863495 
	C173.220169,500.998444 167.615173,493.756927 162.490616,486.152710 
	C157.676682,479.009399 152.867706,471.862732 147.902283,464.488434 
	C146.909454,465.180420 146.023880,465.630829 145.346954,466.294159 
	C131.514542,479.847595 119.597939,495.025604 107.903809,510.399200 
	C106.016747,512.880005 107.154488,514.615173 108.611115,516.590271 
	C116.719704,527.585083 125.468575,538.061707 134.454681,548.335510 
	C138.554672,553.022949 143.007004,557.402222 147.692749,562.335205 
	C153.507614,553.779907 157.971252,545.585327 164.199493,537.740662 
M289.326294,702.735596 
	C288.966064,712.393433 288.916595,722.047791 289.141632,731.714417 
	C289.230560,735.533875 290.459045,736.814148 294.352631,737.054199 
	C306.024658,737.773926 317.669647,737.176514 329.284302,736.519165 
	C338.059967,736.022583 346.770477,734.374573 355.510101,733.240173 
	C358.675690,732.829224 359.976013,731.674866 359.257294,727.948608 
	C357.970306,721.276062 357.184082,714.466919 356.750427,707.678955 
	C356.053467,696.768311 356.185516,697.103943 345.496124,695.227173 
	C330.019623,692.509949 334.050079,694.975769 330.694061,681.221985 
	C330.183624,679.130066 329.831757,676.971252 329.691132,674.824707 
	C329.525635,672.298401 328.207245,671.484985 325.869415,671.195801 
	C316.793213,670.072815 307.707336,668.947327 298.787872,666.867676 
	C296.074493,666.235168 294.825348,666.956970 294.246063,669.751648 
	C292.049164,680.350220 290.452484,691.032043 289.326294,702.735596 
M918.632996,515.273743 
	C920.496399,512.669128 918.575134,510.839386 917.179871,509.094879 
	C908.968506,498.828491 900.890381,488.441986 892.312195,478.488251 
	C888.126587,473.631470 882.955994,469.623596 878.037048,465.050964 
	C876.572021,465.539917 876.053528,467.441467 875.126465,468.959473 
	C867.045349,482.191376 858.131836,494.826843 848.073486,506.633911 
	C843.503601,511.998260 843.417542,513.622253 847.786804,519.062805 
	C856.963806,530.490051 865.867493,542.108154 873.439941,554.699219 
	C874.862793,557.065063 875.970642,559.747253 878.822327,561.960876 
	C893.369629,547.738281 906.090759,532.040710 918.632996,515.273743 
M253.284424,724.068420 
	C258.594696,725.428589 263.935730,726.681152 269.204224,728.187378 
	C272.647034,729.171570 273.744141,727.950623 273.648254,724.590820 
	C273.090515,705.044800 275.381042,685.778931 279.790771,666.767700 
	C280.572815,663.396118 279.571960,662.085205 276.454376,661.047913 
	C263.339264,656.684509 250.658279,651.243591 238.283279,645.084290 
	C237.006012,644.448547 235.775604,643.333313 233.933914,644.082397 
	C233.728470,644.568359 233.400940,645.143250 233.236343,645.761475 
	C227.679611,666.632324 222.839340,687.656799 219.537399,709.018860 
	C219.058090,712.119690 220.871628,713.189148 223.196045,714.037415 
	C232.876373,717.570190 242.508194,721.249023 253.284424,724.068420 
M244.926941,307.610382 
	C238.627823,309.272400 232.753067,312.104919 226.626373,314.221924 
	C223.129608,315.430176 222.047974,317.449951 222.291779,320.935211 
	C223.277603,335.028351 223.892548,349.158508 226.957764,363.017181 
	C228.449936,369.763763 229.201340,376.705017 231.804123,383.379791 
	C232.818100,383.114105 233.486801,383.053497 234.047440,382.775238 
	C248.384628,375.658417 263.136749,369.544342 278.366364,364.622894 
	C281.367157,363.653198 281.429749,362.076660 280.875549,359.358215 
	C277.210632,341.381470 275.167603,323.230591 275.569122,304.845123 
	C275.603455,303.273193 276.118469,301.481812 274.284393,299.889038 
	C264.612000,301.227081 255.110123,304.150635 244.926941,307.610382 
M805.143982,700.185425 
	C802.255188,682.801147 798.568298,665.599304 793.825439,648.614502 
	C792.656738,644.429443 791.090820,643.714783 787.183411,645.625244 
	C779.722717,649.272888 772.086670,652.585327 764.406311,655.752991 
	C758.309265,658.267517 752.037476,660.358521 745.558044,662.742493 
	C751.118408,684.382141 753.322632,706.099243 753.397339,727.771240 
	C755.871704,728.870605 757.628174,727.909912 759.331848,727.522034 
	C771.653687,724.716492 783.766113,721.189026 795.623779,716.785461 
	C806.812378,712.630371 806.833862,712.688171 805.143982,700.185425 
M789.301392,310.307007 
	C779.013367,306.424347 768.505432,303.268463 757.769104,300.898682 
	C751.984192,299.621826 751.307068,300.210419 751.231140,305.901489 
	C750.999939,323.231873 749.390686,340.437592 745.741516,357.381805 
	C744.753601,361.968903 745.999451,364.015869 750.285889,365.452087 
	C764.181335,370.107819 777.739746,375.633392 790.894531,382.118927 
	C791.923645,382.626312 792.935913,383.266266 794.173523,382.903259 
	C795.586121,381.702087 795.590271,379.942627 796.018921,378.362885 
	C800.256470,362.746063 802.778076,346.775635 803.484314,330.690582 
	C804.246765,313.324097 806.991943,317.160309 790.949524,310.970123 
	C790.639099,310.850342 790.337646,310.707489 789.301392,310.307007 
M486.114563,200.372864 
	C474.165436,191.861008 461.779724,184.045883 448.919525,176.979980 
	C446.811127,175.821564 445.171356,174.661514 442.920013,177.248642 
	C431.301392,190.600067 421.246246,205.086578 411.343689,219.705948 
	C409.176453,222.905533 409.608154,224.676117 412.849976,226.893997 
	C426.336700,236.121063 439.112915,246.271637 450.981506,257.534149 
	C451.795959,258.307007 452.514893,259.347839 454.548859,259.173523 
	C464.441559,239.988113 476.061676,221.466324 490.593689,205.227386 
	C489.669495,202.923431 488.058929,201.963669 486.114563,200.372864 
M540.689026,210.862808 
	C553.183472,225.802734 563.065063,242.494141 572.482300,259.880707 
	C574.075317,258.601746 575.021667,257.955658 575.835144,257.171783 
	C587.133911,246.284103 599.330200,236.482529 612.408936,227.854279 
	C616.749207,224.990921 616.664062,222.524597 614.100342,218.621979 
	C604.949036,204.691406 595.054871,191.345200 584.264893,178.633011 
	C581.749817,175.669937 579.696716,175.734390 576.695312,177.443466 
	C564.545044,184.362091 552.479370,191.409119 541.193359,199.695999 
	C539.255493,201.118835 536.715820,202.020111 535.917725,204.984833 
	C537.328369,206.726898 538.783752,208.524231 540.689026,210.862808 
M685.243286,292.875092 
	C680.502686,293.737122 675.759949,294.587616 671.022278,295.465393 
	C667.993774,296.026428 666.918152,297.425049 667.872986,300.739319 
	C669.295166,305.675995 670.251282,310.762482 671.154663,315.829987 
	C673.445618,328.680969 673.367004,328.834534 685.949158,330.821472 
	C691.179077,331.647400 694.618164,333.487244 694.806946,339.426788 
	C694.916931,342.886597 695.961426,346.308167 696.226624,349.774384 
	C696.430176,352.434845 697.506958,353.448029 700.146362,353.842438 
	C708.360840,355.069946 716.616089,356.233704 724.686035,358.139893 
	C729.345947,359.240662 730.955811,357.856567 731.748901,353.529968 
	C735.333252,333.975861 736.248230,314.268921 735.656616,294.442444 
	C735.543457,290.650177 733.333862,290.342163 730.366516,290.229950 
	C715.530396,289.668945 700.788696,290.635834 685.243286,292.875092 
M352.456299,329.061523 
	C353.483917,328.254913 353.570831,327.098114 353.682129,325.919739 
	C354.449829,317.790436 355.824432,309.737000 357.994171,301.891571 
	C359.209595,297.496826 357.974762,295.928436 353.741852,295.083557 
	C334.564636,291.255707 315.256775,289.339783 295.687073,290.150513 
	C292.572693,290.279510 291.427582,291.304382 291.110352,294.506592 
	C289.086029,314.940033 291.643341,335.025146 295.155090,355.077332 
	C295.682892,358.090973 297.028625,359.108002 299.877045,358.585663 
	C308.703125,356.967194 317.520294,355.295135 326.366913,353.797333 
	C328.540710,353.429291 329.534241,352.498962 329.838562,350.336548 
	C330.463379,345.896332 331.286682,341.484161 332.020325,337.059143 
	C332.534790,333.956024 333.959259,331.989594 337.437378,331.613403 
	C342.224426,331.095642 346.968201,330.178162 352.456299,329.061523 
M587.147034,296.274689 
	C584.404663,290.640289 581.662292,285.005890 579.120239,279.783051 
	C578.092957,279.705322 577.893250,279.625427 577.767639,279.689911 
	C558.536743,289.566406 541.679749,302.736786 525.752930,317.196686 
	C523.822388,318.949402 524.445312,320.553528 525.762207,322.423889 
	C528.823914,326.772308 531.737610,331.227051 534.640015,335.685089 
	C540.529724,344.731781 544.980652,354.567078 549.803162,364.261383 
	C550.577576,363.968842 551.117004,363.910706 551.450684,363.617981 
	C565.250244,351.514069 579.868713,340.564575 596.207886,332.080872 
	C598.649597,330.813019 598.319458,329.206696 597.794495,327.115417 
	C595.197876,316.770996 591.675964,306.750610 587.147034,296.274689 
M660.901367,277.557953 
	C661.684998,280.522186 662.647217,282.639343 666.673157,281.633148 
	C683.188110,277.505432 700.019348,275.440033 717.018188,274.834503 
	C720.472656,274.711426 721.603455,273.857056 720.952637,270.066193 
	C718.462585,255.561600 713.915527,241.668442 709.299377,227.763657 
	C708.143738,224.282562 706.287659,223.136765 702.737000,223.247955 
	C686.747986,223.748672 670.891724,225.537766 655.105042,227.961731 
	C650.293518,228.700516 645.264038,228.862808 640.362732,231.404709 
	C647.663818,246.621063 655.243286,261.265289 660.901367,277.557953 
M443.491058,286.930054 
	C437.466705,299.378693 432.569580,312.233337 428.988708,325.614899 
	C427.978943,329.388367 428.813873,331.275452 432.271851,333.118256 
	C444.929779,339.863770 456.734375,347.918762 467.568878,357.358948 
	C470.295837,359.734955 473.118378,362.001190 476.358673,364.702881 
	C477.475891,362.524017 478.445404,360.837433 479.230774,359.069061 
	C484.925507,346.246246 491.762939,334.078400 500.560913,323.130615 
	C503.159485,319.897095 502.294403,318.174744 499.541382,315.843323 
	C485.303101,303.785217 470.507935,292.500214 454.621735,282.683868 
	C447.418060,278.232635 447.414032,278.239166 443.491058,286.930054 
M315.361572,232.791412 
	C311.271210,244.589249 308.522583,256.742828 305.667755,268.875214 
	C304.636139,273.259277 305.846954,274.832458 310.471100,274.902283 
	C316.938446,274.999878 323.416199,275.656982 329.850616,276.408234 
	C341.037903,277.714386 352.141632,279.600220 363.657532,282.370178 
	C369.394073,264.630920 378.049469,248.430527 385.881653,231.648651 
	C384.171143,230.926788 383.306915,230.379669 382.370972,230.193939 
	C362.456390,226.242508 342.403961,223.478485 322.057434,223.251724 
	C319.731323,223.225815 318.280884,224.200974 317.556274,226.379639 
	C316.926361,228.273560 316.255341,230.153793 315.361572,232.791412 
M604.029602,355.264954 
	C603.402222,351.744537 604.272888,347.909363 601.770447,344.492096 
	C600.985046,344.705109 600.153137,344.783783 599.463928,345.139191 
	C583.995178,353.117004 569.980835,363.253174 556.408691,374.065674 
	C554.105713,375.900360 554.773560,377.813538 555.539673,379.845032 
	C559.191040,389.527557 561.616089,399.548706 563.946472,409.604614 
	C564.900635,413.721954 564.649902,418.170380 567.082520,422.191315 
	C577.945923,419.755493 588.545044,416.902954 599.393555,415.242767 
	C601.669006,414.894562 602.591919,413.341431 602.751099,410.984222 
	C603.176636,404.679962 604.008179,398.400635 604.347961,392.093597 
	C604.992981,380.118744 605.226624,368.132385 604.029602,355.264954 
M645.509277,421.101562 
	C635.514648,421.113617 625.602783,422.198486 615.678589,423.237793 
	C612.914734,423.527222 611.614502,424.387787 611.051575,427.238953 
	C609.282715,436.199158 607.473267,445.169525 605.132812,453.990906 
	C603.993530,458.284729 604.852234,460.023407 609.259888,460.711700 
	C621.936157,462.691345 634.203369,466.406036 646.390991,470.296265 
	C649.320801,471.231415 650.980713,470.688232 652.786011,468.476440 
	C662.912109,456.070099 672.332336,443.194580 679.474487,428.792999 
	C680.384399,426.958405 681.814209,425.107086 680.725037,422.470001 
	C669.421082,420.517212 657.958008,420.906464 645.509277,421.101562 
M436.256592,350.265594 
	C432.390839,348.138428 428.889893,345.212982 424.610870,344.559387 
	C423.209167,345.398865 423.392456,346.482178 423.234253,347.441711 
	C420.173218,366.006866 421.236511,384.648956 422.626801,403.236908 
	C423.442841,414.147400 423.920166,414.112274 434.575745,416.528809 
	C435.711914,416.786469 436.854462,417.016724 437.987671,417.286530 
	C445.041504,418.965698 452.093506,420.652557 459.359528,422.387787 
	C459.882904,420.687225 460.403107,419.463959 460.629669,418.188568 
	C462.816528,405.879211 465.793701,393.747986 470.089783,382.026855 
	C471.792755,377.380554 470.616028,374.855347 467.052429,371.969513 
	C457.449768,364.193024 447.276642,357.268799 436.256592,350.265594 
M408.869781,563.850586 
	C399.273621,561.163879 389.651428,558.565125 380.097565,555.735657 
	C377.317383,554.912231 375.335510,555.320984 373.519714,557.585754 
	C363.093079,570.589966 353.553070,584.176514 346.036041,599.101013 
	C345.403992,600.355957 344.202301,601.575195 345.249542,603.364563 
	C345.788757,603.496704 346.413971,603.724426 347.056671,603.796631 
	C368.657440,606.223328 390.193726,604.915222 411.714478,602.670837 
	C413.176392,602.518433 414.282013,601.973572 414.620361,600.434570 
	C417.071716,589.284851 419.513031,578.132874 421.985168,566.855713 
	C421.145020,566.513245 420.568237,566.167297 419.947174,566.043335 
	C416.530518,565.361328 413.102997,564.733582 408.869781,563.850586 
M415.546234,460.877838 
	C422.191254,459.835571 422.207275,459.831970 420.749420,453.348969 
	C418.852631,444.914124 416.789856,436.513336 415.086792,428.039917 
	C414.470093,424.971527 413.333588,423.610016 410.033905,423.171661 
	C390.462555,420.571533 370.819489,421.058136 351.175690,421.439819 
	C348.932892,421.483398 346.580719,421.725616 344.621948,423.276154 
	C344.871246,424.118561 344.962097,424.798279 345.258301,425.371948 
	C353.233948,440.817657 362.641632,455.313660 373.798828,468.671936 
	C375.636414,470.872009 377.499939,470.864197 379.986847,470.177643 
	C391.531799,466.990479 402.976227,463.409302 415.546234,460.877838 
M656.546448,605.606445 
	C664.743958,605.008606 673.027710,605.133301 681.260925,603.121582 
	C680.985901,602.021606 680.927368,601.346191 680.656982,600.770203 
	C673.239258,584.967102 662.886902,571.081665 652.279907,557.360168 
	C650.422791,554.957764 648.266846,555.106384 645.602112,555.885071 
	C633.312805,559.476135 621.121643,563.484375 608.399963,565.384277 
	C605.137268,565.871582 603.894104,567.226746 604.802002,570.828064 
	C606.994507,579.524780 608.931580,588.295898 610.624695,597.103760 
	C611.341919,600.834961 613.027039,602.311829 616.800110,602.773132 
	C629.705688,604.351135 642.696533,604.561035 656.546448,605.606445 
M464.423340,625.904968 
	C463.187408,620.058777 461.629852,614.256226 460.829132,608.351013 
	C460.299194,604.442932 458.817413,603.654053 455.267609,604.602295 
	C446.437653,606.961060 437.560730,609.166199 428.505890,610.506714 
	C424.910217,611.039001 423.611786,613.069214 423.275055,616.566406 
	C421.486847,635.139709 420.865540,653.743225 421.336884,672.390686 
	C421.407593,675.187805 421.358307,677.994080 423.213348,680.596191 
	C424.469666,680.217346 425.616211,680.022705 426.628204,679.543823 
	C441.917450,672.309143 455.741302,662.813904 468.822144,652.166077 
	C470.843353,650.520874 470.887024,648.683167 470.201752,646.379578 
	C468.258514,639.847351 466.477966,633.266785 464.423340,625.904968 
M605.564636,658.803528 
	C604.571594,644.702637 604.479736,630.548035 602.766602,616.482788 
	C602.324280,612.850769 600.923035,611.183228 597.479858,610.489380 
	C588.520630,608.683838 579.572571,606.803101 570.677734,604.707581 
	C567.442871,603.945496 565.912292,604.954224 565.458130,608.055054 
	C563.546631,621.105774 559.874573,633.716797 555.842285,646.229370 
	C554.954529,648.984192 555.428650,650.939392 557.777039,652.750183 
	C568.474121,660.998596 579.486572,668.775208 591.424316,675.131042 
	C595.180115,677.130676 598.826660,679.531433 604.015320,680.581238 
	C604.851562,673.456970 605.641785,666.638123 605.564636,658.803528 
M516.014587,697.432190 
	C526.274719,684.987732 533.858215,670.974304 540.343201,656.286743 
	C541.533508,653.590881 540.716187,651.966064 538.805725,650.228333 
	C532.141602,644.166931 526.186218,637.424133 520.223389,630.690552 
	C517.859253,628.020813 516.046326,624.820801 512.877625,622.518677 
	C504.594635,632.551086 496.158173,641.966431 486.954803,650.659363 
	C485.369415,652.156799 485.246399,653.620972 486.041290,655.568848 
	C492.246887,670.776245 500.298950,684.885376 510.692047,697.639221 
	C512.310608,699.625427 513.803040,699.972717 516.014587,697.432190 
M678.316711,528.790527 
	C685.663696,524.092468 693.309387,519.790771 699.512634,513.519836 
	C698.944580,512.644287 698.758789,512.142212 698.403076,511.840729 
	C685.608521,500.995361 671.185364,492.813843 656.000732,485.856598 
	C653.463806,484.694214 651.957153,485.905182 650.357971,487.540375 
	C644.192078,493.845154 637.807251,499.916199 631.288025,505.861389 
	C628.690613,508.230072 625.116150,509.759247 623.447998,513.716064 
	C633.326050,521.530823 642.294556,530.175476 650.873901,539.224670 
	C652.750122,541.203674 654.689392,540.659973 656.788452,539.754761 
	C663.975708,536.655273 670.939514,533.121155 678.316711,528.790527 
M393.148285,521.627014 
	C396.233154,518.905334 399.318054,516.183716 402.927063,512.999634 
	C392.741211,504.484436 383.679962,495.491486 374.598114,486.520325 
	C372.537628,484.484955 370.517426,485.743683 368.627686,486.614563 
	C354.829163,492.973419 341.829498,500.678711 329.833527,510.025665 
	C328.713043,510.898773 327.223938,511.591675 327.007965,513.660278 
	C340.103546,524.683594 354.681549,533.494568 370.602844,540.154480 
	C373.022095,541.166443 374.329041,539.876221 375.790741,538.445251 
	C381.379944,532.973572 386.988708,527.521912 393.148285,521.627014 
M399.038055,294.349182 
	C405.697632,297.302887 412.357178,300.256561 418.931244,303.172333 
	C420.311401,302.654419 420.612091,301.476715 421.022766,300.409851 
	C425.148468,289.691620 429.936890,279.264923 435.755737,269.377045 
	C438.077576,265.431580 437.127747,263.134308 433.858093,260.644165 
	C424.735504,253.696487 415.878174,246.395233 406.297974,240.063934 
	C404.684875,238.997864 403.226532,237.468552 400.466400,237.661194 
	C392.228912,252.182999 384.515869,267.210114 378.602692,283.120178 
	C377.602173,285.812073 379.090118,286.990082 381.504639,287.826233 
	C387.154999,289.782928 392.735413,291.941559 399.038055,294.349182 
M637.766907,290.152039 
	C641.278442,288.827240 645.053040,288.078186 648.384766,285.485260 
	C642.596741,269.353973 634.827820,254.327972 626.708130,239.459015 
	C625.088989,236.494034 623.297424,237.616989 621.461487,239.013138 
	C611.274048,246.760208 601.117065,254.547394 590.919800,262.281494 
	C588.886780,263.823456 588.393494,265.201447 589.858704,267.679657 
	C594.682373,275.838501 598.729004,284.399872 602.407410,293.147522 
	C603.853394,296.586182 604.711975,300.368866 607.234863,303.620087 
	C617.218445,298.888062 626.897217,294.111908 637.766907,290.152039 
M487.785278,375.834320 
	C496.561798,384.637024 504.839447,393.908508 513.420227,403.743835 
	C521.604675,393.293060 530.405212,384.058533 539.344543,374.954315 
	C540.845764,373.425446 540.229736,372.040955 539.454163,370.451691 
	C534.127258,359.535583 528.600586,348.736908 521.398621,338.897491 
	C518.882568,335.460052 516.558472,331.850037 513.278198,328.860870 
	C512.498779,329.505524 511.913544,329.846954 511.515625,330.339661 
	C501.440552,342.814758 493.088470,356.355591 486.370056,370.917053 
	C485.517944,372.763885 485.974579,374.087921 487.785278,375.834320 
M294.633514,404.717163 
	C291.993011,397.012421 289.212952,389.351471 286.776886,381.582642 
	C285.721436,378.216583 284.406799,376.944366 280.736084,378.274933 
	C266.632568,383.387482 253.238861,390.068207 239.686157,396.407684 
	C236.922607,397.700348 237.117523,399.459534 238.437271,401.630737 
	C243.188553,409.447235 247.851562,417.318665 252.702667,425.072571 
	C254.960480,428.681366 257.573486,432.067932 260.106567,435.670593 
	C270.888214,430.086884 281.286713,424.876160 292.188751,420.761536 
	C301.350220,417.303864 300.853058,418.531647 296.674347,409.559814 
	C296.042694,408.203583 295.489532,406.810791 294.633514,404.717163 
M780.102295,414.636261 
	C783.230042,409.252167 787.114685,404.266235 789.412964,398.100464 
	C774.709656,390.183746 759.923828,383.792084 744.876831,377.953949 
	C742.364014,376.978973 741.174011,377.791351 740.374634,380.117218 
	C736.427307,391.602295 732.337952,403.036255 727.318604,414.108063 
	C726.299377,416.356262 726.539673,417.894012 729.052673,418.780975 
	C741.763916,423.267548 753.939209,428.957733 766.183533,435.816528 
	C770.802063,428.800293 775.261169,422.026215 780.102295,414.636261 
M255.175156,598.607788 
	C249.518875,608.381592 244.316940,618.381714 239.344742,629.183289 
	C254.214706,636.886108 268.990509,643.351074 284.857513,648.869690 
	C289.056763,634.583557 294.812897,621.758972 300.696228,608.639282 
	C289.241119,604.206787 278.526917,599.664124 268.219818,594.225525 
	C260.113281,589.947998 260.107513,589.958984 255.175156,598.607788 
M768.451904,594.070801 
	C766.991150,590.384583 764.942810,590.244202 761.551147,592.151062 
	C750.966370,598.101929 740.062683,603.436401 728.487976,607.258423 
	C727.538147,607.572144 726.571411,607.852112 726.021301,609.421631 
	C732.241150,621.642395 736.888245,634.919861 741.887512,648.398254 
	C757.699463,643.339233 772.450012,637.191589 786.577393,629.176331 
	C786.136841,627.970825 785.919983,627.177429 785.569336,626.448303 
	C780.378967,615.653564 774.720032,605.106323 768.451904,594.070801 
M403.557648,785.905334 
	C413.482544,780.167175 423.378632,774.393677 432.783264,767.801208 
	C435.388977,765.974731 435.735718,764.354309 434.236755,761.646606 
	C428.999298,752.185974 424.528351,742.348511 420.830292,732.192505 
	C419.580231,728.759460 417.938629,728.343933 414.883087,729.844299 
	C406.807159,733.809875 398.112274,736.156860 389.683044,739.200623 
	C385.831421,740.591492 381.596436,740.841064 377.747314,743.013916 
	C378.331360,745.078369 378.738312,747.021545 379.424561,748.860535 
	C383.902039,760.859009 389.463715,772.367188 395.068085,783.870605 
	C397.099213,788.039612 399.229675,789.034546 403.557648,785.905334 
M625.618958,787.576782 
	C628.799072,789.494263 629.702942,786.863281 630.774841,784.887512 
	C636.252319,774.790710 641.217346,764.439575 645.127869,753.636047 
	C649.395691,741.845581 648.927490,743.475769 638.476929,740.140503 
	C627.901489,736.765320 617.566345,732.724548 606.897034,728.337952 
	C602.288452,740.541687 597.307861,752.106873 591.193481,763.149658 
	C589.737061,765.780212 592.146729,766.633484 593.697571,767.712830 
	C603.805786,774.748291 614.238708,781.267273 625.618958,787.576782 
M653.534790,724.951660 
	C654.831848,717.266357 656.337097,709.611572 656.718201,701.797852 
	C656.847778,699.140808 656.390137,697.257812 653.054565,697.282227 
	C641.881836,697.363953 630.855835,695.948242 619.945251,693.623962 
	C617.468750,693.096375 616.128296,693.977112 615.597107,696.361755 
	C614.370789,701.867615 613.234985,707.396606 611.854553,712.863708 
	C611.284912,715.119568 611.992981,716.313843 613.980652,717.162048 
	C625.317261,721.999695 637.051208,725.607422 649.001648,728.554321 
	C651.466187,729.162109 652.785583,728.045776 653.534790,724.951660 
M400.967010,721.429321 
	C404.409241,720.194702 407.799500,718.777161 411.309143,717.779663 
	C414.466003,716.882568 415.098022,715.064697 414.376099,712.155396 
	C413.095703,706.995300 411.800140,701.830566 410.804565,696.611755 
	C410.259857,693.756165 408.869476,693.079529 406.261047,693.632629 
	C395.341522,695.947937 384.320312,697.431580 373.131989,697.277039 
	C370.389435,697.239136 368.988129,698.254578 369.410614,701.102966 
	C370.603241,709.143616 371.904022,717.169067 373.010193,725.221375 
	C373.489685,728.712097 375.288330,729.146667 378.242096,728.234253 
	C385.545074,725.978516 392.883484,723.837585 400.967010,721.429321 
M328.363770,409.907623 
	C331.566223,409.708893 332.690979,408.242310 331.881744,404.972809 
	C329.066681,393.599792 328.252014,382.010345 328.687897,370.334747 
	C328.818359,366.840851 327.324707,366.012329 324.136078,366.521027 
	C317.065857,367.648987 310.181793,369.568726 303.208374,371.103638 
	C299.630005,371.891296 299.187378,373.419617 300.110413,376.733612 
	C302.925568,386.841034 306.600677,396.633972 310.352081,406.405670 
	C313.249084,413.951813 313.294739,413.916870 320.849518,411.818390 
	C323.089874,411.196106 325.362427,410.689789 328.363770,409.907623 
M719.311707,397.920837 
	C720.817932,393.689056 722.606079,389.533752 723.779419,385.211609 
	C727.861450,370.175079 729.478821,372.971619 714.801697,369.152954 
	C709.416382,367.751831 703.990845,366.196991 698.001099,366.389893 
	C697.922668,379.774017 697.133850,392.658508 694.377502,405.350708 
	C693.833130,407.857727 694.762756,409.362152 697.564026,409.894287 
	C701.639832,410.668579 705.698975,411.666565 709.644409,412.942719 
	C712.204773,413.770905 713.333923,412.899384 714.189209,410.683655 
	C715.746826,406.648407 717.406433,402.652496 719.311707,397.920837 
M659.499756,324.734894 
	C657.987427,317.930298 656.873169,311.049438 654.983154,304.311035 
	C653.947266,300.617859 652.428955,299.952576 648.925049,301.040161 
	C638.575684,304.252594 628.529602,308.206299 618.713318,312.756378 
	C611.060059,316.303833 611.104919,316.361145 613.778442,324.634979 
	C614.391174,326.531189 614.879883,328.469238 615.377869,330.400360 
	C615.974548,332.714264 617.091125,333.555145 619.704224,332.985718 
	C631.738281,330.363281 643.887939,328.525696 656.256836,328.676697 
	C658.435913,328.703308 659.848633,328.040649 659.499756,324.734894 
M412.274811,315.234131 
	C401.072662,309.261169 389.248230,304.830048 377.152161,301.076141 
	C375.063568,300.427948 372.771423,299.482971 371.940002,302.692413 
	C369.787323,311.001953 367.527832,319.295746 366.682587,327.701752 
	C368.654022,329.192047 370.554138,328.688873 372.329712,328.698425 
	C381.175415,328.746002 389.913940,329.712494 398.581543,331.451141 
	C409.676025,333.676575 409.678284,333.652374 413.249908,322.657745 
	C413.558289,321.708344 413.905457,320.769989 414.273102,319.841736 
	C414.985229,318.043762 414.688751,316.587402 412.274811,315.234131 
M300.949890,653.635010 
	C309.679565,655.389771 318.315826,657.733826 327.148285,658.178101 
	C328.753448,655.583801 328.672668,653.048767 328.576050,650.581360 
	C328.314362,643.898682 329.043640,637.273804 329.866211,630.684875 
	C331.689270,616.081909 331.785675,616.184692 317.008301,613.143188 
	C314.098572,612.544312 312.711578,613.295227 311.688385,615.921021 
	C307.521973,626.613098 302.925171,637.146118 299.900208,648.252380 
	C299.433777,649.964661 298.482635,651.757202 300.949890,653.635010 
M724.804321,653.637085 
	C728.188477,652.880981 727.168396,650.538208 726.477295,648.554626 
	C723.470520,639.925171 720.433838,631.304565 717.263489,622.734131 
	C713.454956,612.438416 713.391663,612.462708 702.874878,614.921021 
	C701.257812,615.299072 699.654236,615.868591 698.016602,615.997925 
	C694.225464,616.297363 693.907898,618.557678 694.474365,621.576904 
	C695.147339,625.164185 695.666504,628.780090 696.317566,632.371826 
	C697.852234,640.838135 697.343079,649.483032 698.289246,658.089355 
	C707.285034,657.791077 715.686279,655.832397 724.804321,653.637085 
z"/>
</svg>